<?xml version="1.0" encoding="UTF-8" standalone="no"?>
<svg xmlns="http://www.w3.org/2000/svg" width="300" height="300" viewBox="0 0 300 300">
  <rect width="300" height="300" fill="white"/>
  <g fill="black">
    <!-- QRIS Logo at top -->
    <rect x="120" y="20" width="60" height="20" fill="#2196F3"/>
    <text x="150" y="35" font-family="Arial" font-size="14" text-anchor="middle" fill="white">QRIS</text>
    
    <!-- QR Code Pattern -->
    <!-- Position Detection Patterns -->
    <rect x="40" y="40" width="50" height="50"/>
    <rect x="50" y="50" width="30" height="30" fill="white"/>
    <rect x="60" y="60" width="10" height="10"/>
    
    <rect x="210" y="40" width="50" height="50"/>
    <rect x="220" y="50" width="30" height="30" fill="white"/>
    <rect x="230" y="60" width="10" height="10"/>
    
    <rect x="40" y="210" width="50" height="50"/>
    <rect x="50" y="220" width="30" height="30" fill="white"/>
    <rect x="60" y="230" width="10" height="10"/>
    
    <!-- QR Code Data Pattern (simplified) -->
    <rect x="110" y="70" width="10" height="10"/>
    <rect x="130" y="70" width="10" height="10"/>
    <rect x="150" y="70" width="10" height="10"/>
    <rect x="170" y="70" width="10" height="10"/>
    
    <rect x="90" y="90" width="10" height="10"/>
    <rect x="110" y="90" width="10" height="10"/>
    <rect x="150" y="90" width="10" height="10"/>
    <rect x="190" y="90" width="10" height="10"/>
    
    <rect x="70" y="110" width="10" height="10"/>
    <rect x="90" y="110" width="10" height="10"/>
    <rect x="130" y="110" width="10" height="10"/>
    <rect x="150" y="110" width="10" height="10"/>
    <rect x="170" y="110" width="10" height="10"/>
    
    <rect x="110" y="130" width="10" height="10"/>
    <rect x="130" y="130" width="10" height="10"/>
    <rect x="150" y="130" width="10" height="10"/>
    <rect x="190" y="130" width="10" height="10"/>
    
    <rect x="70" y="150" width="10" height="10"/>
    <rect x="110" y="150" width="10" height="10"/>
    <rect x="130" y="150" width="10" height="10"/>
    <rect x="170" y="150" width="10" height="10"/>
    <rect x="210" y="150" width="10" height="10"/>
    
    <rect x="90" y="170" width="10" height="10"/>
    <rect x="110" y="170" width="10" height="10"/>
    <rect x="150" y="170" width="10" height="10"/>
    <rect x="170" y="170" width="10" height="10"/>
    <rect x="190" y="170" width="10" height="10"/>
    
    <rect x="110" y="190" width="10" height="10"/>
    <rect x="130" y="190" width="10" height="10"/>
    <rect x="150" y="190" width="10" height="10"/>
    <rect x="170" y="190" width="10" height="10"/>
    <rect x="210" y="190" width="10" height="10"/>
    
    <rect x="130" y="210" width="10" height="10"/>
    <rect x="170" y="210" width="10" height="10"/>
    <rect x="190" y="210" width="10" height="10"/>
    <rect x="210" y="210" width="10" height="10"/>
    
    <!-- Text at bottom -->
    <text x="150" y="280" font-family="Arial" font-size="12" text-anchor="middle">Scan untuk melakukan pembayaran</text>
  </g>
</svg>
